<?xml version="1.0" encoding="utf-8"?>
<!-- Generator: Adobe Illustrator 19.1.0, SVG Export Plug-In . SVG Version: 6.00 Build 0)  -->
<svg version="1.1" id="Layer_1" xmlns="http://www.w3.org/2000/svg" xmlns:xlink="http://www.w3.org/1999/xlink" x="0px" y="0px"
	 viewBox="24.3 -23.3 80 80" style="enable-background:new 24.3 -23.3 80 80;" xml:space="preserve">
<style type="text/css">
	.st0{fill:#69BD45;}
</style>
<g id="Layer_1_1_">
	<path class="st0" d="M76.7,37.5L68.3,2.1c0-0.2-0.2-0.3-0.4-0.4c-0.2,0-0.4,0-0.5,0.2l-3.1,3.8l-3-3.8c-0.1-0.1-0.3-0.2-0.5-0.2
		c-0.2,0-0.3,0.2-0.4,0.4l-8.4,35.4c0,0.1,0,0.3,0.1,0.4l12,16.2c0.1,0.1,0.2,0.2,0.4,0.2c0.2,0,0.3-0.1,0.4-0.2l12-16.2
		C76.7,37.8,76.7,37.6,76.7,37.5z M70.2,41l-5.9,7.6l-8.2-11.3l8.2,7.2L70.2,41z"/>
	<path class="st0" d="M78.5-20.4c-0.2-0.3-0.5-0.6-1-0.6H64.3H51c-0.4,0-0.8,0.2-1,0.6c-0.2,0.3-0.1,0.9,0.1,1.2l6.6,8.1L63.3-3
		c0.2,0.2,0.5,0.4,0.9,0.4c0.3,0,0.6-0.1,0.9-0.4l6.6-8.1l6.6-8.1C78.6-19.5,78.6-20,78.5-20.4z"/>
</g>
</svg>
