<?xml version="1.0" encoding="utf-8"?>
<!-- Generator: Adobe Illustrator 19.1.0, SVG Export Plug-In . SVG Version: 6.00 Build 0)  -->
<svg version="1.1" id="Layer_1" xmlns="http://www.w3.org/2000/svg" xmlns:xlink="http://www.w3.org/1999/xlink" x="0px" y="0px"
	 viewBox="24.3 -23.3 80 80" style="enable-background:new 24.3 -23.3 80 80;" xml:space="preserve">
<style type="text/css">
	.st0{fill:#FFFFFF;}
</style>
<g id="Layer_1_1_">
	<path class="st0" d="M75.8,36L68,3.1c0-0.2-0.2-0.3-0.4-0.4c-0.2,0-0.4,0-0.5,0.2l-2.9,3.5l-2.8-3.5c-0.1-0.1-0.3-0.2-0.5-0.2
		s-0.3,0.2-0.4,0.4L52.7,36c0,0.1,0,0.3,0.1,0.4l11.1,15c0.1,0.1,0.2,0.2,0.4,0.2c0.2,0,0.3-0.1,0.4-0.2l11.1-15
		C75.8,36.3,75.8,36.1,75.8,36z M69.8,39.3l-5.5,7.1l-7.6-10.5l7.6,6.7L69.8,39.3z"/>
	<path class="st0" d="M77.5-17.7c-0.2-0.3-0.5-0.6-0.9-0.6H64.3H52c-0.4,0-0.7,0.2-0.9,0.6c-0.2,0.3-0.1,0.8,0.1,1.1l6.1,7.5
		l6.1,7.5c0.2,0.2,0.5,0.4,0.8,0.4c0.3,0,0.6-0.1,0.8-0.4l6.1-7.5l6.1-7.5C77.6-16.9,77.6-17.4,77.5-17.7z"/>
</g>
</svg>
