<?xml version="1.0" encoding="utf-8"?>
<!-- Generator: Adobe Illustrator 19.1.0, SVG Export Plug-In . SVG Version: 6.00 Build 0)  -->
<svg version="1.1" id="Layer_2_1_" xmlns="http://www.w3.org/2000/svg" xmlns:xlink="http://www.w3.org/1999/xlink" x="0px" y="0px"
	 viewBox="15.5 -23 80 80" style="enable-background:new 15.5 -23 80 80;" xml:space="preserve">
<style type="text/css">
	.st0{display:none;fill:none;stroke:#1700EE;stroke-miterlimit:10;}
	.st1{fill:#69BD45;}
	.st2{fill:#69BD45;stroke:#1700EE;stroke-miterlimit:10;}
</style>
<line class="st0" x1="17" y1="48.9" x2="57.8" y2="78.8"/>
<line class="st0" x1="98.4" y1="48.9" x2="57.6" y2="78.8"/>
<g>
	<path class="st1" d="M90.7-8.5H20.3c-1.8,0-3.2,1.5-3.2,3.2v44.7c0,1.8,1.5,3.2,3.2,3.2h70.4c1.8,0,3.2-1.5,3.2-3.2V-5.3
		C93.8-7.1,92.4-8.5,90.7-8.5z M78.7,4.7L55.4,25.6L32.1,4.7c0,0,22.4,13.4,23.4,13.4C56.6,18.1,78.7,4.7,78.7,4.7z"/>
</g>
<path class="st2" d="M60.4,35.5"/>
<path class="st2" d="M60.4,35.5"/>
</svg>
