<?xml version="1.0" encoding="utf-8"?>
<!-- Generator: Adobe Illustrator 19.1.0, SVG Export Plug-In . SVG Version: 6.00 Build 0)  -->
<svg version="1.1" id="Layer_2" xmlns="http://www.w3.org/2000/svg" xmlns:xlink="http://www.w3.org/1999/xlink" x="0px" y="0px"
	 viewBox="39.8 -23.3 80 80" style="enable-background:new 39.8 -23.3 80 80;" xml:space="preserve">
<style type="text/css">
	.st0{fill:#FFFFFF;stroke:#000000;stroke-miterlimit:10;}
	.st1{fill:#69BD45;}
</style>
<path class="st0" d="M87.3,9.3"/>
<g>
	<g>
		<path class="st1" d="M82-20.1H65v40.1h29.6V-6.7L82-20.1z M76.8-1.5v-17.3c0.1,0.6,2.7,12.8,3.5,13.5c0.8,0.9,13.8,3.8,13.8,3.8
			S76.8-1.5,76.8-1.5z"/>
	</g>
	<g>
		<path class="st1" d="M107.5,9.2h-7.4v15.6H60.8V9.2H52c-3.6,0-6.5,3-6.5,6.5v31.1c0,3.6,3,6.5,6.5,6.5h55.4c3.6,0,6.5-3,6.5-6.5
			V15.8C114.1,12.2,111.2,9.2,107.5,9.2z M102.1,44.8c-0.1,0.4-0.6,0.7-1.1,0.7l-12.4-2.4c-0.5-0.1-0.8-0.5-0.6-1.4l0.2-0.9
			c0.3-1.5-0.7-2.8-2.2-3c-2-0.2-4.2-0.2-6.3-0.2c-2.2,0-4.2,0.1-6.2,0.4c-1.5,0.1-2.5,1.6-2.2,3.1c0.3,1.2-0.4,2.3-1.6,2.6
			l-11.1,2.5c-0.5,0.1-0.9-0.2-1.2-0.5c0,0-1.8-5.2-1.8-5.9c0-4.3,10.6-8,23.9-8.3c13.3-0.2,24,3.1,24.1,7.4
			C103.6,39.6,102.1,44.8,102.1,44.8z"/>
	</g>
</g>
</svg>
