<?xml version="1.0" encoding="utf-8"?>
<!-- Generator: Adobe Illustrator 19.1.0, SVG Export Plug-In . SVG Version: 6.00 Build 0)  -->
<svg version="1.1" id="Layer_1" xmlns="http://www.w3.org/2000/svg" xmlns:xlink="http://www.w3.org/1999/xlink" x="0px" y="0px"
	 viewBox="0 0 35 35" style="enable-background:new 0 0 35 35;" xml:space="preserve">
<style type="text/css">
	.st0{fill:#408C5F;}
</style>
<g>
	<path class="st0" d="M28.1,10.6L10.8,27.9c-1,1-2.6,1-3.6,0l-0.3-0.3c-1-1-1-2.6,0-3.6L24.2,6.7c1-1,2.6-1,3.6,0L28.1,7
		C29.1,8,29.1,9.6,28.1,10.6z"/>
	<g>
		<path class="st0" d="M6.9,10.6l17.3,17.3c1,1,2.6,1,3.6,0l0.3-0.3c1-1,1-2.6,0-3.6L10.8,6.7c-1-1-2.6-1-3.6,0L6.9,7
			C5.9,8,5.9,9.6,6.9,10.6z"/>
	</g>
</g>
</svg>
