<?xml version="1.0" encoding="utf-8"?>
<!-- Generator: Adobe Illustrator 19.1.0, SVG Export Plug-In . SVG Version: 6.00 Build 0)  -->
<svg version="1.1" id="Layer_1" xmlns="http://www.w3.org/2000/svg" xmlns:xlink="http://www.w3.org/1999/xlink" x="0px" y="0px"
	 viewBox="0 0 35 35" style="enable-background:new 0 0 35 35;" xml:space="preserve">
<style type="text/css">
	.st0{fill:#408C5F;}
</style>
<g>
	<path class="st0" d="M29.7,10.6H5.2c-1.4,0-2.6-1.2-2.6-2.6V7.7c0-1.4,1.2-2.6,2.6-2.6h24.4c1.4,0,2.6,1.2,2.6,2.6v0.4
		C32.2,9.5,31.1,10.6,29.7,10.6z"/>
	<path class="st0" d="M29.7,20.2H5.2c-1.4,0-2.6-1.2-2.6-2.6v-0.4c0-1.4,1.2-2.6,2.6-2.6h24.4c1.4,0,2.6,1.2,2.6,2.6v0.4
		C32.2,19.1,31.1,20.2,29.7,20.2z"/>
	<path class="st0" d="M29.7,29.8H5.2c-1.4,0-2.6-1.2-2.6-2.6v-0.4c0-1.4,1.2-2.6,2.6-2.6h24.4c1.4,0,2.6,1.2,2.6,2.6v0.4
		C32.2,28.7,31.1,29.8,29.7,29.8z"/>
</g>
</svg>
