<?xml version="1.0" encoding="utf-8"?>
<!-- Generator: Adobe Illustrator 19.1.0, SVG Export Plug-In . SVG Version: 6.00 Build 0)  -->
<svg version="1.1" id="Layer_2_1_" xmlns="http://www.w3.org/2000/svg" xmlns:xlink="http://www.w3.org/1999/xlink" x="0px" y="0px"
	 viewBox="29.8 -23.3 80 80" style="enable-background:new 29.8 -23.3 80 80;" xml:space="preserve">
<style type="text/css">
	.st0{fill:#69BD45;}
</style>
<g>
	<g>
		<path class="st0" d="M64.5,38v10.9h10.7V38H64.5z M66.3,47.5v-5.3c0,0,0.7,3.5,1.4,4.1c0.6,0.5,4,1.3,4,1.3H66.3z"/>
		<g>
			<path class="st0" d="M85.6-4.6c0-1.4-0.9-2.1-2.7-2.1c-0.5,0-1,0-1.3,0.1v4.2H83C84.6-2.4,85.6-3.2,85.6-4.6z"/>
			<path class="st0" d="M63.9,14.9c-0.1,0.3-0.2,0.5-0.3,0.8l-1.2,3.4h2.9l-1.2-3.4C64.1,15.3,64,15.2,63.9,14.9z"/>
			<path class="st0" d="M69.7,3.8c2.7,0,4-2.6,4-5.3c0-2.5-1.3-5.2-4-5.2c-2.7,0-4,2.6-4,5.4C65.7,1.1,66.9,3.8,69.7,3.8z"/>
		</g>
	</g>
	<path class="st0" d="M103.5-15.6H36c-1.7,0-3.1,1.4-3.1,3.1v43c0,1.7,1.4,3.1,3.1,3.1h67.6c1.7,0,3.1-1.4,3.1-3.1v-43
		C106.6-14.2,105.3-15.6,103.5-15.6z M69.8-9.1c4.1,0,6.8,3.1,6.8,7.7c0,5.5-3.6,7.9-7,7.9c-4,0-6.8-3.1-6.8-7.7
		C62.7-5.9,65.7-9.1,69.8-9.1z M52.6-8.5c0-0.3,0.3-0.5,0.5-0.5h7.6c0.3,0,0.5,0.3,0.5,0.5v1.6c0,0.3-0.3,0.5-0.5,0.5h-5.2v3.6h4.8
		c0.3,0,0.5,0.3,0.5,0.5v1.4c0,0.3-0.3,0.5-0.5,0.5h-4.8v5.8c0,0.3-0.3,0.5-0.5,0.5h-1.8c-0.3,0-0.5-0.3-0.5-0.5V-8.5L52.6-8.5z
		 M37.6-11.7c-1,0.9-1.9,6.2-1.9,6.2v-8.1h8.1C43.8-13.6,38.5-12.6,37.6-11.7z M43.8,31.2h-8.1v-8.1c0,0,0.9,5.2,1.9,6.2
		C38.5,30.3,43.8,31.2,43.8,31.2z M95.6-13.6h8.1v8.1c0,0-0.9-5.2-1.9-6.2C100.8-12.8,95.6-13.6,95.6-13.6z M101.8,29.3
		c1-0.9,1.9-6.2,1.9-6.2v8.1h-8.1C95.6,31.2,100.8,30.3,101.8,29.3z M51.1,26.1c-1.4,0-3-0.4-3.8-1c-0.2-0.1-0.3-0.4-0.2-0.5
		l0.5-1.6c0.1-0.2,0.2-0.3,0.3-0.4c0.2-0.1,0.3,0,0.5,0c0.8,0.5,2,0.8,3,0.8c1.6,0,2.5-0.7,2.5-1.9c0-0.9-0.4-1.6-2.3-2.3
		c-2.7-1-4-2.5-4-4.5c0-2.6,2.1-4.3,5-4.3c1.7,0,2.8,0.5,3.4,0.7c0.2,0.1,0.3,0.4,0.3,0.6l-0.5,1.5c-0.1,0.2-0.2,0.3-0.3,0.3
		c-0.2,0.1-0.3,0.1-0.5,0c-0.5-0.3-1.4-0.6-2.5-0.6c-1.6,0-2.1,0.8-2.1,1.6s0.4,1.5,2.5,2.2c1.9,0.7,3.9,1.9,3.9,4.7
		C56.4,23.8,54.8,26.1,51.1,26.1z M70.3,25.7c-0.1,0.1-0.3,0.2-0.4,0.2h-1.9c-0.2,0-0.5-0.2-0.5-0.4l-1.4-4.1h-4.3l-1.4,4.1
		c0,0.2-0.2,0.4-0.4,0.4h-1.9c-0.2,0-0.4-0.1-0.5-0.2c-0.1-0.1-0.1-0.3-0.1-0.5l4.7-14c0.1-0.2,0.3-0.4,0.5-0.4H65
		c0.2,0,0.5,0.2,0.5,0.4l4.8,14C70.4,25.4,70.4,25.6,70.3,25.7z M81.1,25.4c0,0.3-0.3,0.5-0.5,0.5h-7.8c-0.3,0-0.5-0.3-0.5-0.5v-14
		c0-0.3,0.3-0.5,0.5-0.5h1.8c0.3,0,0.5,0.3,0.5,0.5v12h5.5c0.3,0,0.5,0.3,0.5,0.5L81.1,25.4L81.1,25.4z M81.6,0.1v5.6
		c0,0.3-0.3,0.5-0.5,0.5h-1.8c-0.3,0-0.5-0.3-0.5-0.5V-8.3c0-0.3,0.2-0.5,0.5-0.5c0.9-0.2,2.3-0.3,3.6-0.3c2.1,0,3.5,0.4,4.4,1.3
		c0.8,0.7,1.3,1.8,1.3,3c0,1.6-0.7,2.9-2.1,3.6c0.7,0.5,1.2,1.5,1.5,2.7c0.4,1.7,0.7,3.2,1,3.7c0.1,0.2,0.1,0.4,0,0.5
		C89,5.9,88.8,6,88.5,6h-1.9c-0.2,0-0.4-0.1-0.5-0.3c-0.3-0.5-0.5-1.4-1-3.5C84.5,0.3,84,0,82.6-0.2h-1.1L81.6,0.1L81.6,0.1z
		 M91.3,25.8h-7.9c-0.3,0-0.5-0.3-0.5-0.5V11.4c0-0.3,0.3-0.5,0.5-0.5h7.6c0.3,0,0.5,0.3,0.5,0.5v1.5c0,0.3-0.3,0.5-0.5,0.5h-5.3
		v3.4h4.9c0.3,0,0.5,0.3,0.5,0.5v1.4c0,0.3-0.3,0.5-0.5,0.5h-4.9v4h5.6c0.3,0,0.5,0.3,0.5,0.5v1.5H92C91.9,25.6,91.6,25.8,91.3,25.8
		z"/>
</g>
</svg>
