<?xml version="1.0" encoding="utf-8"?>
<!-- Generator: Adobe Illustrator 19.1.0, SVG Export Plug-In . SVG Version: 6.00 Build 0)  -->
<svg version="1.1" id="Layer_1" xmlns="http://www.w3.org/2000/svg" xmlns:xlink="http://www.w3.org/1999/xlink" x="0px" y="0px"
	 viewBox="-202 327 206 139" style="enable-background:new -202 327 206 139;" xml:space="preserve">
<style type="text/css">
	.st0{fill:#B8C3B6;}
	.st1{fill:#68BC45;}
</style>
<g>
	<g>
		<path class="st0" d="M-141.4,402.7V371l0,0h-12.8l0,0v60.6c0,3.4,5,3.7,6,3.7h40l0,0l4.6-4.8l4.6-4.8l0.5-0.6l0.5,0.6l4.6,4.8
			l4.6,4.8l0,0h42c1,0,6-0.2,6-3.7V371l0,0h-14.7l0,0v31.7c0,4.2-3.4,7.6-7.6,7.6h-20.8c-4.2,0-7.6-3.4-7.6-7.6v-24.1l0,0h-13.8l0,0
			v24.1c0,4.2-3.4,7.6-7.6,7.6h-20.9C-138,410.3-141.4,406.9-141.4,402.7z"/>
	</g>
	<g>
		<path class="st1" d="M-66.9,397.9c0-0.9,0-42.2,0-42.6l0,0l-30.3-25.4l0,0l-22.3,19.2l0,0v-7v-0.2h-10.5l0,0v5.7v7.4v43.1l0,0
			h13.2l0,0v-21.7c0-5.6,4.5-10.1,10.1-10.1h16.4c5.6,0,10.1,4.5,10.1,10.1V398l0,0L-66.9,397.9C-66.9,398-66.9,398-66.9,397.9z"/>
	</g>
	<g>
		<path class="st1" d="M-198.9,464.4v-20.3l0,0h4.7l0,0v8.2l0,0h5l0,0v-8.2l0,0h4.7l0,0v20.3l0,0h-4.7l0,0v-8.9l0,0h-5l0,0v8.9l0,0
			H-198.9L-198.9,464.4z"/>
		<path class="st1" d="M-176.3,457.2c0-2.6,0.5-4.6,1.6-5.8c1.1-1.2,2.7-1.9,5-1.9s3.9,0.6,5,1.9c1.1,1.2,1.6,3.2,1.6,5.8
			s-0.5,4.6-1.6,5.8c-1.1,1.2-2.7,1.8-5,1.8s-3.9-0.6-5-1.8C-175.7,461.8-176.3,459.8-176.3,457.2z M-169.7,452.4
			c-0.8,0-1.4,0.4-1.8,1.2c-0.4,0.8-0.5,2-0.5,3.6c0,1.7,0.2,2.9,0.5,3.6c0.4,0.8,1,1.2,1.8,1.2c1.6,0,2.3-1.6,2.3-4.8
			c0-1.7-0.2-2.9-0.6-3.6C-168.3,452.8-168.9,452.4-169.7,452.4z"/>
		<path class="st1" d="M-154.9,464.4v-14.5l0,0l4-0.4v1c0.7-0.4,1.3-0.6,1.8-0.8c0.6-0.2,1.1-0.3,1.7-0.3c1.5,0,2.7,0.5,3.5,1.6l0,0
			c1.5-1,2.9-1.5,4.3-1.5s2.5,0.5,3.3,1.4c0.2,0.2,0.3,0.4,0.4,0.6c0.1,0.2,0.2,0.5,0.3,0.7c0.1,0.3,0.1,0.6,0.1,0.9
			c0,0.4,0,0.8,0,1.3v9.9l0,0h-4l0,0v-8.8c0-0.3,0-0.5,0-0.7s0-0.4-0.1-0.5c-0.1-0.5-0.3-0.8-0.6-1.1c-0.3-0.3-0.7-0.4-1.2-0.4
			c-0.6,0-1.3,0.2-1.9,0.7l0,0v10.8l0,0h-4l0,0v-8.8c0-0.3,0-0.5,0-0.7s0-0.3,0-0.5c0-0.5-0.2-0.8-0.6-1.1c-0.3-0.3-0.8-0.4-1.3-0.4
			c-0.3,0-0.6,0.1-0.9,0.2c-0.3,0.1-0.6,0.3-0.9,0.5v10.9l0,0H-154.9L-154.9,464.4z"/>
		<path class="st1" d="M-114.6,458.5h-7.9l0,0c0.2,1,0.6,1.8,1.2,2.4c0.7,0.5,1.6,0.8,2.7,0.8c0.4,0,0.9,0,1.4-0.1s1-0.2,1.6-0.4
			l0,0l0.6,2.8l0,0c-0.8,0.3-1.6,0.5-2.3,0.6c-0.7,0.1-1.5,0.2-2.3,0.2c-2.4,0-4.2-0.7-5.5-2c-1.3-1.4-1.9-3.3-1.9-5.8
			c0-2.3,0.6-4.1,1.7-5.4s2.7-2,4.7-2s3.5,0.6,4.5,1.9s1.5,3.1,1.5,5.5c0,0.2,0,0.4,0,0.6C-114.5,457.9-114.5,458.2-114.6,458.5z
			 M-121.1,452.5c-0.2,0-0.5,0.1-0.6,0.3c-0.8,0.6-1.2,1.7-1.2,3.3l0,0h4.6v-0.3c0-1.1-0.2-1.9-0.6-2.5
			C-119.4,452.6-120.1,452.3-121.1,452.5z"/>
		<path class="st1" d="M-92.9,444.7l-1,3.3l0,0c-0.7-0.3-1.4-0.5-1.9-0.6c-0.6-0.1-1.2-0.2-1.7-0.2c-0.8,0-1.4,0.1-1.9,0.4
			c-0.8,0.4-1.2,1.4-1,2.2c0.1,0.4,0.3,0.7,0.6,1c0.1,0.1,0.2,0.2,0.3,0.3c0.1,0.1,0.3,0.2,0.4,0.3c0.2,0.1,0.4,0.2,0.7,0.3
			c0.3,0.1,0.6,0.3,1.1,0.5c0.8,0.4,1.5,0.7,2.1,1s1.1,0.6,1.5,0.9c1.3,1,1.9,2.4,1.9,4.2c0,1-0.2,1.8-0.5,2.6
			c-0.4,0.8-0.9,1.5-1.5,2.1c-0.7,0.6-1.5,1-2.4,1.3s-1.9,0.5-3,0.5c-0.9,0-1.7-0.1-2.5-0.3c-0.8-0.2-1.8-0.5-3-0.9l0,0l1-3.4l0,0
			c1.6,0.7,3,1.1,4.3,1.1c0.9,0,1.7-0.2,2.2-0.6c0.6-0.4,0.8-1,0.8-1.7s-0.3-1.2-0.8-1.6c-0.2-0.2-0.6-0.4-0.9-0.6
			c-0.4-0.2-1-0.5-1.8-0.9c-0.5-0.2-0.9-0.4-1.3-0.6s-0.7-0.3-0.9-0.5c-0.3-0.2-0.5-0.3-0.7-0.5c-0.2-0.2-0.4-0.3-0.6-0.5
			c-1-1-1.5-2.3-1.5-3.9c0-0.9,0.2-1.8,0.5-2.5c0.3-0.7,0.8-1.4,1.4-1.9c0.6-0.5,1.3-0.9,2.2-1.2c0.9-0.3,1.8-0.4,2.9-0.4
			C-96.5,443.8-94.8,444.1-92.9,444.7L-92.9,444.7z"/>
		<path class="st1" d="M-76,455.7v-1c0-0.2,0-0.4,0-0.5s0-0.2,0-0.3c-0.2-0.8-1-1.2-2.4-1.2c-0.5,0-1.1,0.1-1.6,0.2
			s-1.2,0.3-1.9,0.5l0,0l-0.9-2.9l0,0c1.1-0.3,2.1-0.5,2.9-0.7c0.8-0.1,1.7-0.2,2.6-0.2c1,0,1.8,0.1,2.5,0.3s1.3,0.5,1.8,0.9
			c0.2,0.2,0.5,0.4,0.6,0.6c0.2,0.2,0.3,0.4,0.4,0.7c0.1,0.3,0.2,0.6,0.2,1s0.1,0.8,0.1,1.4v10.1l0,0h-3.8l-0.3-1.2
			c-0.6,0.5-1.2,0.9-1.8,1.2c-0.6,0.3-1.3,0.4-2,0.4c-1.4,0-2.5-0.4-3.4-1.3c-0.8-0.8-1.3-2-1.3-3.4c0-0.8,0.1-1.4,0.4-2
			s0.6-1.1,1.1-1.5s1-0.8,1.6-1s1.4-0.4,2.2-0.4C-78.2,455.3-77.2,455.4-76,455.7z M-76,461.2v-3.5c-0.3,0-0.5-0.1-0.7-0.1
			c-0.2,0-0.4,0-0.6,0c-0.9,0-1.6,0.2-2.1,0.6s-0.8,1-0.8,1.7c0,0.6,0.2,1.1,0.6,1.4c0.4,0.4,0.9,0.5,1.6,0.5c0.3,0,0.6,0,1-0.1
			C-76.8,461.6-76.4,461.4-76,461.2z"/>
		<path class="st1" d="M-65,449.9l4.3-0.4l0,0l2.2,9.1c0.1,0.2,0.1,0.5,0.2,0.9c0,0.4,0.1,0.8,0.1,1.3c0.1-0.5,0.1-0.9,0.2-1.4
			c0.1-0.4,0.1-0.7,0.2-0.9l2.2-8.7l0,0h4l0,0l-4.3,14.5l0,0h-5.1l0,0L-65,449.9C-65,450-65,449.9-65,449.9z"/>
		<path class="st1" d="M-32.4,458.5h-7.9l0,0c0.2,1,0.6,1.8,1.2,2.4c0.7,0.5,1.6,0.8,2.7,0.8c0.4,0,0.9,0,1.4-0.1s1-0.2,1.6-0.4l0,0
			l0.6,2.8l0,0c-0.8,0.3-1.6,0.5-2.3,0.6s-1.5,0.2-2.3,0.2c-2.4,0-4.2-0.7-5.5-2c-1.3-1.4-1.9-3.3-1.9-5.8c0-2.3,0.6-4.1,1.7-5.4
			s2.7-2,4.7-2s3.5,0.6,4.5,1.9s1.5,3.1,1.5,5.5c0,0.2,0,0.4,0,0.6C-32.4,457.9-32.4,458.2-32.4,458.5z M-38.9,452.5
			c-0.2,0-0.5,0.1-0.6,0.3c-0.8,0.6-1.2,1.7-1.2,3.3l0,0h4.6v-0.3c0-1.1-0.2-1.9-0.6-2.5C-37.3,452.6-38,452.3-38.9,452.5z"/>
		<path class="st1" d="M-24.3,464.4v-14.5l0,0l4.1-0.2v1.2c0.5-0.4,1-0.8,1.5-1s1-0.3,1.6-0.3c0.1,0,0.1,0,0.2,0s0.2,0,0.3,0
			l-0.4,3.6c-0.2,0-0.4-0.1-0.6-0.1s-0.3,0-0.5,0c-0.7,0-1.4,0.2-2.2,0.5l0,0v10.8l0,0H-24.3L-24.3,464.4z"/>
		<path class="st1" d="M-10.3,464l0.8-3.1l0,0c1.3,0.4,2.5,0.7,3.6,0.7c0.8,0,1.4-0.1,1.9-0.3c0.5-0.2,0.7-0.5,0.7-0.9
			s-0.3-0.7-0.8-1c-0.2-0.1-0.3-0.2-0.5-0.3s-0.3-0.1-0.5-0.2c-0.1,0-0.2-0.1-0.5-0.2c-0.2-0.1-0.5-0.2-0.8-0.3
			c-0.7-0.3-1.2-0.5-1.6-0.7c-0.4-0.2-0.8-0.5-1.1-0.8c-0.4-0.4-0.7-0.8-0.9-1.3s-0.3-1-0.3-1.6c0-1.4,0.5-2.5,1.6-3.3
			c1.1-0.8,2.6-1.2,4.4-1.2c0.7,0,1.5,0.1,2.2,0.2c0.8,0.1,1.6,0.3,2.6,0.6l0,0l-0.8,3l0,0c-0.8-0.3-1.5-0.5-2.2-0.6
			c-0.6-0.1-1.2-0.2-1.8-0.2s-1.1,0.1-1.5,0.3c-0.4,0.2-0.5,0.5-0.5,0.9c0,0.1,0,0.2,0.1,0.3c0,0.1,0.1,0.2,0.2,0.3
			c0.1,0.1,0.2,0.2,0.3,0.3s0.2,0.2,0.4,0.2c0.1,0,0.2,0.1,0.3,0.1c0.1,0.1,0.3,0.1,0.5,0.2l0.7,0.3l0.3,0.1l1.3,0.6
			c1.1,0.5,1.9,1,2.4,1.6S1,459.1,1,460c0,1.5-0.5,2.7-1.6,3.6s-2.6,1.3-4.6,1.3C-6.8,464.8-8.5,464.6-10.3,464L-10.3,464z"/>
	</g>
</g>
<g>
	<g>
		<rect x="28.8" y="356.5" class="st1" width="127.5" height="41.6"/>
	</g>
</g>
</svg>
