<?xml version="1.0" encoding="utf-8"?>
<!-- Generator: Adobe Illustrator 19.1.0, SVG Export Plug-In . SVG Version: 6.00 Build 0)  -->
<svg version="1.1" id="Layer_2" xmlns="http://www.w3.org/2000/svg" xmlns:xlink="http://www.w3.org/1999/xlink" x="0px" y="0px"
	 viewBox="24.3 -23.2 80 80" style="enable-background:new 24.3 -23.2 80 80;" xml:space="preserve">
<style type="text/css">
	.st0{stroke:#000000;stroke-miterlimit:10;}
	.st1{fill:#FFFFFF;}
</style>
<path class="st0" d="M248.3-155.3"/>
<g>
	<g>
		<path class="st1" d="M79.3-21c0,0,0.8,2,6.1,5.8c5,3.6,7.5,4,7.8,4c-0.2-0.7-1.1-2.6-6.2-6.2C81.9-21,79.9-21.2,79.3-21L79.3-21z"
			/>
		<g>
			<path class="st1" d="M79.5-1.7"/>
		</g>
	</g>
	<path class="st1" d="M77.8-4.6c-4.4-3.1-6-5.2-6.5-6.1l-0.9,1.3c0.5,0.8,1.8,2.8,6.4,6c4.5,3.3,7.1,4,8,4.2l1-1.3
		C84.9-0.7,82.4-1.5,77.8-4.6z"/>
	<path class="st1" d="M80.2-7.7c-4.4-3.1-6-5.2-6.5-6.1l-0.9,1.4c0.5,0.8,1.8,2.8,6.4,6c4.3,3,6.9,4,7.9,4.2l0.9-1.3
		C87-3.7,84.7-4.5,80.2-7.7z"/>
	<path class="st1" d="M84.5-13.7c-4.4-3.2-6.1-5.3-6.6-6.1l-3,4.2c0.4,0.7,1.6,2.7,6.4,6c4.2,2.9,6.8,4,7.9,4.2l3-4.3
		C91.3-9.8,88.8-10.6,84.5-13.7z"/>
	<path class="st1" d="M47.2,37.9c-3.9-2.7-5.6-4.6-6.4-5.7l-5.4,22.6l19.5-12.7C53.3,41.6,50.8,40.4,47.2,37.9z M38.3,50.6l1.2-7
		l1.3,3.5l3.7,0.1L38.3,50.6z"/>
	<path class="st1" d="M45.8,33.9L72.9-3.8c-2.4-2-3.3-3.3-3.6-3.9L42.2,30.1C42.6,30.7,43.7,32,45.8,33.9z"/>
	<path class="st1" d="M48.8,36.3c0.6,0.4,1.2,0.8,1.7,1.2L77.8-0.3c-0.6-0.4-1.2-0.8-1.8-1.3c-0.7-0.5-1.4-1-2-1.4L46.8,34.7
		C47.3,35.2,48.1,35.7,48.8,36.3z"/>
	<path class="st1" d="M56.6,40.3L83.8,2.5c-0.7-0.1-2.3-0.5-5-2.1L51.8,38.2C54.2,39.7,55.8,40.2,56.6,40.3z"/>
</g>
</svg>
