<?xml version="1.0"?>
<svg width="80" height="80" xmlns="http://www.w3.org/2000/svg">.st0{fill:#69BD45;stroke:#000000;stroke-miterlimit:10;}
	.st1{fill:#FFFFFF;}
 <g>
  <title>Layer 1</title>
  <path d="m133.300003,-45.400002" class="st0"/>
  <path fill="#408c5f" d="m63.300003,63.700001l-12.300003,-12.900002c-1.300003,-1.399998 -3.5,-1.399998 -4.800003,-0.099998l0,0c-1.699997,1.599998 -4.399994,1.399998 -5.799995,-0.5c-1.900002,-2.5 -3.700001,-5.200001 -5.5,-8.100002s-3.400002,-5.799999 -4.800003,-8.699997c-1,-2.100002 0,-4.6 2.200001,-5.300001l1.5,-0.5c1.200001,-0.4 1.600002,-1.300001 1.299999,-2l-6.699997,-18.700001c-0.300003,-0.699999 -1.100002,-1.1 -1.800003,-0.9c0,0 -8.299999,2.3 -9.099998,2.8c-5.799999,3.599999 -1.599998,20.7 9.299999,38.400001c10.900002,17.599995 24.399998,28.999996 30.200001,25.499996c0.900002,-0.599998 6.5,-7.099998 6.5,-7.099998c0.300003,-0.400002 0.300003,-1.299995 -0.199997,-1.899998z" class="st1"/>
 </g></svg>