<?xml version="1.0" encoding="utf-8"?>
<!-- Generator: Adobe Illustrator 19.1.0, SVG Export Plug-In . SVG Version: 6.00 Build 0)  -->
<svg version="1.1" id="Layer_2" xmlns="http://www.w3.org/2000/svg" xmlns:xlink="http://www.w3.org/1999/xlink" x="0px" y="0px"
	 viewBox="24.3 -23.3 80 80" style="enable-background:new 24.3 -23.3 80 80;" xml:space="preserve">
<style type="text/css">
	.st0{fill:#69BD45;stroke:#000000;stroke-miterlimit:10;}
	.st1{fill:#69BD45;}
</style>
<path class="st0" d="M133.3-45.4"/>
<path class="st1" d="M88.3,40.7L76,27.8c-1.3-1.4-3.5-1.4-4.8-0.1l0,0c-1.7,1.6-4.4,1.4-5.8-0.5c-1.9-2.5-3.7-5.2-5.5-8.1
	s-3.4-5.8-4.8-8.7c-1-2.1,0-4.6,2.2-5.3l1.5-0.5c1.2-0.4,1.6-1.3,1.3-2l-6.7-18.7c-0.3-0.7-1.1-1.1-1.8-0.9c0,0-8.3,2.3-9.1,2.8
	c-5.8,3.6-1.6,20.7,9.3,38.4c10.9,17.6,24.4,29,30.2,25.5c0.9-0.6,6.5-7.1,6.5-7.1C88.8,42.2,88.8,41.3,88.3,40.7z"/>
</svg>
