<?xml version="1.0" encoding="utf-8"?>
<!-- Generator: Adobe Illustrator 19.1.0, SVG Export Plug-In . SVG Version: 6.00 Build 0)  -->
<svg version="1.1" id="Layer_1" xmlns="http://www.w3.org/2000/svg" xmlns:xlink="http://www.w3.org/1999/xlink" x="0px" y="0px"
	 viewBox="24.3 -23.3 80 80" style="enable-background:new 24.3 -23.3 80 80;" xml:space="preserve">
<style type="text/css">
	.st0{fill:#69BD45;}
</style>
<path class="st0" d="M81.9-14.7c-8.1,0-15.1,5.3-17.7,12.6c-2.6-7.3-9.5-12.6-17.7-12.6C36.3-14.7,27.8-6.3,27.8,4
	c0,5.5,2.8,9.4,5.6,13.3l30.3,30.5c0.2,0.2,0.3,0.3,0.5,0.3s0.5-0.2,0.5-0.3l30.3-30.5c2.7-3.8,5.6-7.8,5.6-13.3
	C100.6-6.3,92.2-14.7,81.9-14.7z M92.2,7.9c0-0.5,0-1,0-1.5C91.8-1.6,84.9-7.7,77-7.2c-0.2,0-0.4,0-0.6,0.1c1.7-1.4,3.8-2.2,6.2-2.4
	c6.1-0.4,11.3,4.3,11.6,10.4C94.4,3.5,93.6,5.9,92.2,7.9z"/>
</svg>
